<?xml version="1.0" encoding="utf-8"?>
<!-- Generator: Adobe Illustrator 25.4.1, SVG Export Plug-In . SVG Version: 6.00 Build 0)  -->
<svg version="1.1" id="Layer_1" xmlns="http://www.w3.org/2000/svg" xmlns:xlink="http://www.w3.org/1999/xlink" x="0px" y="0px"
	 viewBox="0 0 351 49" style="enable-background:new 0 0 351 49;" xml:space="preserve">
<g>
	<path d="M7.6,2H0.5V1h20.4c10.7,0,18.9,3.4,18.9,13c0,9.4-9.5,13-18.2,13c-2.4,0-5.3-0.5-6.7-1.1V47h7.3V48H0.5V47h7.1V2z
		 M14.9,24.6C16,25.2,18,26,20.4,26c4.7,0,11.7-2.3,11.7-11.4C32.1,5.8,27.8,2,19.3,2h-4.4V24.6z"/>
	<path d="M69.6-0.1c12.1,0,22.6,10.9,22.6,24.6c0,13.7-10.5,24.6-22.6,24.6C57.5,49.1,47,38.2,47,24.5C47,10.8,57.5-0.1,69.6-0.1z
		 M69.6,48c12.7,0,14.5-14.8,14.5-23.5C84.1,15.7,82.3,1,69.6,1C56.8,1,55.1,15.7,55.1,24.5C55.1,33.3,56.8,48,69.6,48z"/>
	<path d="M105.1,2h-7.2V1h22c8.2,0,17.2,1.7,17.2,11.8c0,8.2-10.1,10.3-15.3,10.9v0.1c8.2,0.7,12.6,2.3,13.7,11.2l1,8.2
		c0.5,4,2.5,4.2,3.7,4.2c1.3,0,2.2-0.4,2.9-0.7l0.4,0.9c-1.4,0.5-3.2,0.9-5.9,0.9c-8.7,0-9.2-4.3-10.2-12l-0.5-4
		c-0.5-4.2-1.8-8-9.9-8h-4.7V47h7.3V48H97.9V47h7.2V2z M112.4,23.3h3.6c8.4,0,13.4-2.7,13.4-10.5c0-5.3-1.9-10.8-12.1-10.8h-4.9
		V23.3z"/>
	<path d="M163.6,2h-1.5c-12.7,0-15.6,1.8-15.6,12.8h-1.1V1h43.8v13.8h-1.1c0-11-2.9-12.8-15.5-12.8H171V47h7.4V48h-22V47h7.4V2z"/>
	<path d="M195.8,31.5h1.1c0,11.2,7.1,16.5,15.7,16.5c6.9,0,11.8-4.1,11.8-10.1c0-6.9-3.9-9-12.1-10.2c-11.2-1.7-16.5-3.4-16.5-14.6
		c0-7.6,5.4-13.2,13.4-13.2c7.4,0,10.2,4.1,12.6,4.1c1.6,0,1.9-1.7,2.1-2.5h1.1v14h-1.1C223.2,7.9,218.8,1,209.2,1
		c-6.1,0-10.4,3.7-10.4,9.9c0,6,2.4,7.4,14.3,9.4c10.5,1.7,14.8,4.9,14.8,13.6c0,8.8-5.2,15.3-15.5,15.3c-7.2,0-11-3.5-13.6-3.5
		c-1.7,0-1.8,1.7-1.8,2.8h-1.1V31.5z"/>
	<path d="M257.8,32.8h-15.3l-2.9,8.4c-0.5,1.3-1.1,2.9-1.1,4.1c0,0.9,0.9,1.7,3.1,1.7h3.7V48h-14.7V47h2.3c2.2,0,3.1-0.2,4.5-3.9
		l15.4-43.1h0.8L271,47h5.9V48h-21V47h7L257.8,32.8z M250.1,11.5h-0.1l-7,20.3h14.5L250.1,11.5z"/>
	<path d="M286.6,2h-6.5V1h20.3V2h-6.5V47h6.5V48h-20.3V47h6.5V2z"/>
	<path d="M310.5,2h-6.8V1h22.4c19,0,24.4,14.6,24.4,23.5c0,14.6-9.7,23.5-24.3,23.5h-22.5V47h6.8V2z M317.8,47h6.2
		c6.4,0,18.4-2.3,18.4-22.5c0-11.4-3.5-22.5-21.1-22.5h-3.5V47z"/>
</g>
</svg>
